<mxfile host="Electron" modified="2024-07-24T07:28:04.497Z" agent="Mozilla/5.0 (Windows NT 10.0; Win64; x64) AppleWebKit/537.36 (KHTML, like Gecko) draw.io/21.6.1 Chrome/112.0.5615.204 Electron/24.6.1 Safari/537.36" etag="aze0PL3qvi_WX9bvj-_f" version="21.6.1" type="device">
  <diagram name="第 1 页" id="i6MQzUItMrL2s_9ixCZ9">
    <mxGraphModel dx="3169" dy="1471" grid="1" gridSize="10" guides="1" tooltips="1" connect="1" arrows="1" fold="1" page="1" pageScale="1" pageWidth="1169" pageHeight="827" math="0" shadow="0">
      <root>
        <mxCell id="0" />
        <mxCell id="1" parent="0" />
        <mxCell id="yXJMe5tw-wj3yFqUXWoE-2" value="开始" style="rounded=1;whiteSpace=wrap;html=1;fontSize=16;" vertex="1" parent="1">
          <mxGeometry x="770" y="120" width="160" height="40" as="geometry" />
        </mxCell>
        <mxCell id="yXJMe5tw-wj3yFqUXWoE-3" value="reactive(target: object)" style="rounded=1;whiteSpace=wrap;html=1;fontSize=16;fontFamily=Lucida Console;" vertex="1" parent="1">
          <mxGeometry x="745" y="210" width="210" height="40" as="geometry" />
        </mxCell>
        <mxCell id="yXJMe5tw-wj3yFqUXWoE-4" value="" style="endArrow=classic;html=1;rounded=0;exitX=0.5;exitY=1;exitDx=0;exitDy=0;entryX=0.5;entryY=0;entryDx=0;entryDy=0;" edge="1" parent="1" source="yXJMe5tw-wj3yFqUXWoE-2" target="yXJMe5tw-wj3yFqUXWoE-3">
          <mxGeometry width="50" height="50" relative="1" as="geometry">
            <mxPoint x="820" y="500" as="sourcePoint" />
            <mxPoint x="870" y="450" as="targetPoint" />
          </mxGeometry>
        </mxCell>
        <mxCell id="yXJMe5tw-wj3yFqUXWoE-5" value="&lt;div style=&quot;font-family: Consolas, &amp;quot;Courier New&amp;quot;, monospace; line-height: 27px;&quot;&gt;&lt;div style=&quot;&quot;&gt;&lt;span style=&quot;background-color: rgb(255, 255, 255);&quot;&gt;createReactiveObject(&lt;/span&gt;&lt;/div&gt;&lt;div style=&quot;&quot;&gt;&lt;span style=&quot;background-color: rgb(255, 255, 255);&quot;&gt;&amp;nbsp; &amp;nbsp; target,&lt;/span&gt;&lt;span style=&quot;background-color: rgb(255, 255, 255);&quot;&gt;&amp;nbsp;false,&lt;/span&gt;&lt;span style=&quot;background-color: rgb(255, 255, 255);&quot;&gt;mutableHandlers,&lt;/span&gt;&lt;/div&gt;&lt;div style=&quot;&quot;&gt;&lt;span style=&quot;background-color: rgb(255, 255, 255);&quot;&gt;&amp;nbsp;mutableCollectionHandlers,&lt;/span&gt;&lt;span style=&quot;background-color: rgb(255, 255, 255);&quot;&gt;reactiveMap,&lt;/span&gt;&lt;/div&gt;&lt;div style=&quot;&quot;&gt;&lt;span style=&quot;background-color: rgb(255, 255, 255);&quot;&gt;&amp;nbsp; )&lt;/span&gt;&lt;/div&gt;&lt;/div&gt;" style="rounded=1;whiteSpace=wrap;html=1;fontSize=16;" vertex="1" parent="1">
          <mxGeometry x="665" y="400" width="370" height="120" as="geometry" />
        </mxCell>
        <mxCell id="yXJMe5tw-wj3yFqUXWoE-6" value="&lt;b&gt;Note：&lt;/b&gt;&lt;br&gt;1. Target&lt;br&gt;&amp;nbsp; &amp;nbsp; &amp;nbsp;interface Target {&lt;br&gt;&amp;nbsp; &amp;nbsp; &amp;nbsp; &amp;nbsp; [ReactiveFlags.SKIP] ?: boolean,&lt;br&gt;&amp;nbsp; &amp;nbsp; &amp;nbsp; &amp;nbsp; [ReactiveFlags.IS_REACTIVE] ?: boolean&lt;br&gt;&lt;span style=&quot;&quot;&gt;&lt;span style=&quot;white-space: pre;&quot;&gt;&amp;nbsp;&amp;nbsp;&amp;nbsp;&amp;nbsp;    &lt;/span&gt;&lt;/span&gt;[ReactiveFlags.IS_READONLY] ?: boolean&lt;br&gt;&lt;span style=&quot;&quot;&gt;&lt;span style=&quot;white-space: pre;&quot;&gt;&amp;nbsp;&amp;nbsp;&amp;nbsp;&amp;nbsp;    &lt;/span&gt;&lt;/span&gt;[ReactiveFlags.IS_SHALLOW] ?: boolean&lt;br&gt;&lt;span style=&quot;&quot;&gt;&lt;span style=&quot;white-space: pre;&quot;&gt;&amp;nbsp;&amp;nbsp;&amp;nbsp;&amp;nbsp;    &lt;/span&gt;&lt;/span&gt;[ReactiveFlags.RAW] ?: any&lt;br&gt;&amp;nbsp; &amp;nbsp; }&lt;br&gt;&amp;nbsp; &amp;nbsp;&amp;nbsp;&lt;br&gt;2. TargetType&lt;br&gt;&amp;nbsp; &amp;nbsp; enum&amp;nbsp;TargetType {&lt;br&gt;&lt;span style=&quot;white-space: pre;&quot;&gt;&#x9;&lt;/span&gt;INVALID = 0,&lt;br&gt;&lt;span style=&quot;white-space: pre;&quot;&gt;&#x9;&lt;/span&gt;COMMON = 1,&lt;br&gt;&lt;span style=&quot;white-space: pre;&quot;&gt;&#x9;&lt;/span&gt;COLLECTION = 2,&lt;br&gt;&amp;nbsp; &amp;nbsp; }&lt;br&gt;&lt;span style=&quot;&quot;&gt;&lt;span style=&quot;white-space: pre;&quot;&gt;&amp;nbsp;&amp;nbsp;&amp;nbsp;&amp;nbsp;&lt;/span&gt;&lt;/span&gt;" style="text;html=1;strokeColor=none;fillColor=none;align=left;verticalAlign=top;whiteSpace=wrap;rounded=0;fontSize=16;" vertex="1" parent="1">
          <mxGeometry x="-1120" y="120" width="520" height="370" as="geometry" />
        </mxCell>
        <mxCell id="yXJMe5tw-wj3yFqUXWoE-7" value="Reactive" style="text;html=1;strokeColor=none;fillColor=none;align=center;verticalAlign=middle;whiteSpace=wrap;rounded=0;fontSize=26;fontStyle=1" vertex="1" parent="1">
          <mxGeometry x="-1120" y="40" width="200" height="80" as="geometry" />
        </mxCell>
        <mxCell id="yXJMe5tw-wj3yFqUXWoE-8" value="判断target是否为&lt;br&gt;readonly?" style="rhombus;whiteSpace=wrap;html=1;fontSize=16;" vertex="1" parent="1">
          <mxGeometry x="690" y="280" width="320" height="80" as="geometry" />
        </mxCell>
        <mxCell id="yXJMe5tw-wj3yFqUXWoE-9" value="" style="endArrow=classic;html=1;rounded=0;exitX=0.5;exitY=1;exitDx=0;exitDy=0;entryX=0.5;entryY=0;entryDx=0;entryDy=0;" edge="1" parent="1" source="yXJMe5tw-wj3yFqUXWoE-3" target="yXJMe5tw-wj3yFqUXWoE-8">
          <mxGeometry width="50" height="50" relative="1" as="geometry">
            <mxPoint x="1010" y="300" as="sourcePoint" />
            <mxPoint x="1060" y="250" as="targetPoint" />
          </mxGeometry>
        </mxCell>
        <mxCell id="yXJMe5tw-wj3yFqUXWoE-10" value="return target" style="rounded=1;whiteSpace=wrap;html=1;fontSize=16;fontFamily=Lucida Console;" vertex="1" parent="1">
          <mxGeometry x="-250" y="300" width="210" height="40" as="geometry" />
        </mxCell>
        <mxCell id="yXJMe5tw-wj3yFqUXWoE-11" value="" style="endArrow=classic;html=1;rounded=0;entryX=1;entryY=0.5;entryDx=0;entryDy=0;exitX=0;exitY=0.5;exitDx=0;exitDy=0;" edge="1" parent="1" source="yXJMe5tw-wj3yFqUXWoE-8" target="yXJMe5tw-wj3yFqUXWoE-10">
          <mxGeometry width="50" height="50" relative="1" as="geometry">
            <mxPoint x="490" y="410" as="sourcePoint" />
            <mxPoint x="540" y="360" as="targetPoint" />
          </mxGeometry>
        </mxCell>
        <mxCell id="yXJMe5tw-wj3yFqUXWoE-12" value="Y" style="edgeLabel;html=1;align=center;verticalAlign=middle;resizable=0;points=[];" vertex="1" connectable="0" parent="yXJMe5tw-wj3yFqUXWoE-11">
          <mxGeometry x="0.0222" y="-2" relative="1" as="geometry">
            <mxPoint as="offset" />
          </mxGeometry>
        </mxCell>
        <mxCell id="yXJMe5tw-wj3yFqUXWoE-13" value="结束" style="rounded=1;whiteSpace=wrap;html=1;fontSize=16;" vertex="1" parent="1">
          <mxGeometry x="770" y="1281" width="160" height="40" as="geometry" />
        </mxCell>
        <mxCell id="yXJMe5tw-wj3yFqUXWoE-14" value="" style="endArrow=classic;html=1;rounded=0;exitX=0.5;exitY=1;exitDx=0;exitDy=0;entryX=0;entryY=0.5;entryDx=0;entryDy=0;" edge="1" parent="1" source="yXJMe5tw-wj3yFqUXWoE-10" target="yXJMe5tw-wj3yFqUXWoE-13">
          <mxGeometry width="50" height="50" relative="1" as="geometry">
            <mxPoint x="380" y="790" as="sourcePoint" />
            <mxPoint x="430" y="740" as="targetPoint" />
            <Array as="points">
              <mxPoint x="-150" y="1301" />
            </Array>
          </mxGeometry>
        </mxCell>
        <mxCell id="yXJMe5tw-wj3yFqUXWoE-15" value="" style="endArrow=classic;html=1;rounded=0;exitX=0.5;exitY=1;exitDx=0;exitDy=0;entryX=0.5;entryY=0;entryDx=0;entryDy=0;" edge="1" parent="1" source="yXJMe5tw-wj3yFqUXWoE-8" target="yXJMe5tw-wj3yFqUXWoE-5">
          <mxGeometry width="50" height="50" relative="1" as="geometry">
            <mxPoint x="980" y="440" as="sourcePoint" />
            <mxPoint x="1030" y="390" as="targetPoint" />
          </mxGeometry>
        </mxCell>
        <mxCell id="yXJMe5tw-wj3yFqUXWoE-17" value="判断target是否为&lt;br&gt;object?" style="rhombus;whiteSpace=wrap;html=1;fontSize=16;" vertex="1" parent="1">
          <mxGeometry x="690" y="560" width="320" height="80" as="geometry" />
        </mxCell>
        <mxCell id="yXJMe5tw-wj3yFqUXWoE-18" value="" style="endArrow=classic;html=1;rounded=0;exitX=0.5;exitY=1;exitDx=0;exitDy=0;" edge="1" parent="1" source="yXJMe5tw-wj3yFqUXWoE-5" target="yXJMe5tw-wj3yFqUXWoE-17">
          <mxGeometry width="50" height="50" relative="1" as="geometry">
            <mxPoint x="1170" y="570" as="sourcePoint" />
            <mxPoint x="1170" y="610" as="targetPoint" />
          </mxGeometry>
        </mxCell>
        <mxCell id="yXJMe5tw-wj3yFqUXWoE-19" value="" style="endArrow=classic;html=1;rounded=0;exitX=0;exitY=0.5;exitDx=0;exitDy=0;entryX=0;entryY=0.5;entryDx=0;entryDy=0;" edge="1" parent="1" source="yXJMe5tw-wj3yFqUXWoE-17" target="yXJMe5tw-wj3yFqUXWoE-13">
          <mxGeometry width="50" height="50" relative="1" as="geometry">
            <mxPoint x="540" y="760" as="sourcePoint" />
            <mxPoint x="810" y="1304.4444783528645" as="targetPoint" />
            <Array as="points">
              <mxPoint x="-30" y="600" />
              <mxPoint x="-30" y="1301" />
            </Array>
          </mxGeometry>
        </mxCell>
        <mxCell id="yXJMe5tw-wj3yFqUXWoE-20" value="N" style="edgeLabel;html=1;align=center;verticalAlign=middle;resizable=0;points=[];" vertex="1" connectable="0" parent="yXJMe5tw-wj3yFqUXWoE-19">
          <mxGeometry x="-0.8017" y="-1" relative="1" as="geometry">
            <mxPoint x="-250" as="offset" />
          </mxGeometry>
        </mxCell>
        <mxCell id="yXJMe5tw-wj3yFqUXWoE-21" value="判断target是否为&lt;span style=&quot;font-family: Consolas, &amp;quot;Courier New&amp;quot;, monospace; background-color: rgb(255, 255, 255);&quot;&gt;target[ReactiveFlags.RAW] &amp;amp;&amp;amp; !&lt;/span&gt;&lt;span style=&quot;font-family: Consolas, &amp;quot;Courier New&amp;quot;, monospace; background-color: rgb(255, 255, 255);&quot;&gt;(isReadonly &amp;amp;&amp;amp;target[ReactiveFlags.IS_REACTIVE])&lt;/span&gt;" style="rhombus;whiteSpace=wrap;html=1;fontSize=16;" vertex="1" parent="1">
          <mxGeometry x="690" y="680" width="320" height="80" as="geometry" />
        </mxCell>
        <mxCell id="yXJMe5tw-wj3yFqUXWoE-22" value="" style="endArrow=classic;html=1;rounded=0;exitX=0.5;exitY=1;exitDx=0;exitDy=0;entryX=0.5;entryY=0;entryDx=0;entryDy=0;" edge="1" parent="1" source="yXJMe5tw-wj3yFqUXWoE-17" target="yXJMe5tw-wj3yFqUXWoE-21">
          <mxGeometry width="50" height="50" relative="1" as="geometry">
            <mxPoint x="940" y="680" as="sourcePoint" />
            <mxPoint x="990" y="630" as="targetPoint" />
          </mxGeometry>
        </mxCell>
        <mxCell id="yXJMe5tw-wj3yFqUXWoE-23" value="" style="endArrow=classic;html=1;rounded=0;exitX=0;exitY=0.5;exitDx=0;exitDy=0;entryX=0.5;entryY=0;entryDx=0;entryDy=0;" edge="1" parent="1" source="yXJMe5tw-wj3yFqUXWoE-21" target="yXJMe5tw-wj3yFqUXWoE-25">
          <mxGeometry width="50" height="50" relative="1" as="geometry">
            <mxPoint x="680" y="700" as="sourcePoint" />
            <mxPoint x="680" y="1090" as="targetPoint" />
            <Array as="points">
              <mxPoint x="140" y="720" />
            </Array>
          </mxGeometry>
        </mxCell>
        <mxCell id="yXJMe5tw-wj3yFqUXWoE-24" value="Y" style="edgeLabel;html=1;align=center;verticalAlign=middle;resizable=0;points=[];" vertex="1" connectable="0" parent="yXJMe5tw-wj3yFqUXWoE-23">
          <mxGeometry x="-0.7867" y="-1" relative="1" as="geometry">
            <mxPoint as="offset" />
          </mxGeometry>
        </mxCell>
        <mxCell id="yXJMe5tw-wj3yFqUXWoE-25" value="return target" style="rounded=1;whiteSpace=wrap;html=1;fontSize=16;fontFamily=Lucida Console;" vertex="1" parent="1">
          <mxGeometry x="40" y="760" width="200" height="40" as="geometry" />
        </mxCell>
        <mxCell id="yXJMe5tw-wj3yFqUXWoE-26" value="" style="endArrow=classic;html=1;rounded=0;entryX=0;entryY=0.5;entryDx=0;entryDy=0;" edge="1" parent="1" target="yXJMe5tw-wj3yFqUXWoE-13">
          <mxGeometry width="50" height="50" relative="1" as="geometry">
            <mxPoint x="140" y="790" as="sourcePoint" />
            <mxPoint x="770" y="1290" as="targetPoint" />
            <Array as="points">
              <mxPoint x="140" y="1300" />
            </Array>
          </mxGeometry>
        </mxCell>
        <mxCell id="yXJMe5tw-wj3yFqUXWoE-27" value="判断target是否&lt;span style=&quot;background-color: rgb(255, 255, 255);&quot;&gt;存在对应的响应式&lt;font face=&quot;Consolas, Courier New, monospace&quot;&gt;Proxy？&lt;/font&gt;&lt;/span&gt;" style="rhombus;whiteSpace=wrap;html=1;fontSize=16;" vertex="1" parent="1">
          <mxGeometry x="690" y="800" width="320" height="80" as="geometry" />
        </mxCell>
        <mxCell id="yXJMe5tw-wj3yFqUXWoE-28" value="" style="endArrow=classic;html=1;rounded=0;exitX=0.5;exitY=1;exitDx=0;exitDy=0;entryX=0.5;entryY=0;entryDx=0;entryDy=0;" edge="1" parent="1" source="yXJMe5tw-wj3yFqUXWoE-21" target="yXJMe5tw-wj3yFqUXWoE-27">
          <mxGeometry width="50" height="50" relative="1" as="geometry">
            <mxPoint x="600" y="830" as="sourcePoint" />
            <mxPoint x="650" y="780" as="targetPoint" />
          </mxGeometry>
        </mxCell>
        <mxCell id="yXJMe5tw-wj3yFqUXWoE-29" value="" style="endArrow=classic;html=1;rounded=0;exitX=0;exitY=0.5;exitDx=0;exitDy=0;entryX=0.5;entryY=0;entryDx=0;entryDy=0;" edge="1" parent="1" source="yXJMe5tw-wj3yFqUXWoE-27" target="yXJMe5tw-wj3yFqUXWoE-30">
          <mxGeometry width="50" height="50" relative="1" as="geometry">
            <mxPoint x="480" y="1010" as="sourcePoint" />
            <mxPoint x="530" y="870" as="targetPoint" />
            <Array as="points">
              <mxPoint x="340" y="840" />
            </Array>
          </mxGeometry>
        </mxCell>
        <mxCell id="yXJMe5tw-wj3yFqUXWoE-31" value="Y" style="edgeLabel;html=1;align=center;verticalAlign=middle;resizable=0;points=[];" vertex="1" connectable="0" parent="yXJMe5tw-wj3yFqUXWoE-29">
          <mxGeometry x="-0.1704" y="1" relative="1" as="geometry">
            <mxPoint as="offset" />
          </mxGeometry>
        </mxCell>
        <mxCell id="yXJMe5tw-wj3yFqUXWoE-30" value="existingProxy" style="rounded=1;whiteSpace=wrap;html=1;fontSize=16;fontFamily=Lucida Console;" vertex="1" parent="1">
          <mxGeometry x="240" y="880" width="200" height="40" as="geometry" />
        </mxCell>
        <mxCell id="yXJMe5tw-wj3yFqUXWoE-32" value="" style="endArrow=classic;html=1;rounded=0;exitX=0.5;exitY=1;exitDx=0;exitDy=0;entryX=0;entryY=0.5;entryDx=0;entryDy=0;" edge="1" parent="1" source="yXJMe5tw-wj3yFqUXWoE-30" target="yXJMe5tw-wj3yFqUXWoE-13">
          <mxGeometry width="50" height="50" relative="1" as="geometry">
            <mxPoint x="400" y="1190" as="sourcePoint" />
            <mxPoint x="450" y="1140" as="targetPoint" />
            <Array as="points">
              <mxPoint x="340" y="1301" />
            </Array>
          </mxGeometry>
        </mxCell>
        <mxCell id="yXJMe5tw-wj3yFqUXWoE-33" value="&lt;div style=&quot;color: rgb(204, 204, 204); background-color: rgb(31, 31, 31); font-family: Consolas, &amp;quot;Courier New&amp;quot;, monospace; font-size: 20px; line-height: 27px;&quot;&gt;&lt;div&gt;// TargetType&lt;/div&gt;&lt;div&gt;&lt;br&gt;&lt;/div&gt;&lt;div&gt;function &lt;span style=&quot;color: rgb(220, 220, 170);&quot;&gt;targetTypeMap&lt;/span&gt;(&lt;span style=&quot;color: rgb(156, 220, 254);&quot;&gt;rawType&lt;/span&gt;&lt;span style=&quot;color: rgb(212, 212, 212);&quot;&gt;:&lt;/span&gt; &lt;span style=&quot;color: rgb(78, 201, 176);&quot;&gt;string&lt;/span&gt;) {&lt;br&gt;&lt;/div&gt;&lt;div&gt;&amp;nbsp; &lt;span style=&quot;color: #c586c0;&quot;&gt;switch&lt;/span&gt; (&lt;span style=&quot;color: #9cdcfe;&quot;&gt;rawType&lt;/span&gt;) {&lt;/div&gt;&lt;div&gt;&amp;nbsp; &amp;nbsp; &lt;span style=&quot;color: #c586c0;&quot;&gt;case&lt;/span&gt; &lt;span style=&quot;color: #ce9178;&quot;&gt;&#39;Object&#39;&lt;/span&gt;:&lt;/div&gt;&lt;div&gt;&amp;nbsp; &amp;nbsp; &lt;span style=&quot;color: #c586c0;&quot;&gt;case&lt;/span&gt; &lt;span style=&quot;color: #ce9178;&quot;&gt;&#39;Array&#39;&lt;/span&gt;:&lt;/div&gt;&lt;div&gt;&amp;nbsp; &amp;nbsp; &amp;nbsp; &lt;span style=&quot;color: #c586c0;&quot;&gt;return&lt;/span&gt; &lt;span style=&quot;color: #4ec9b0;&quot;&gt;TargetType&lt;/span&gt;.&lt;span style=&quot;color: #4fc1ff;&quot;&gt;COMMON&lt;/span&gt;&lt;/div&gt;&lt;div&gt;&amp;nbsp; &amp;nbsp; &lt;span style=&quot;color: #c586c0;&quot;&gt;case&lt;/span&gt; &lt;span style=&quot;color: #ce9178;&quot;&gt;&#39;Map&#39;&lt;/span&gt;:&lt;/div&gt;&lt;div&gt;&amp;nbsp; &amp;nbsp; &lt;span style=&quot;color: #c586c0;&quot;&gt;case&lt;/span&gt; &lt;span style=&quot;color: #ce9178;&quot;&gt;&#39;Set&#39;&lt;/span&gt;:&lt;/div&gt;&lt;div&gt;&amp;nbsp; &amp;nbsp; &lt;span style=&quot;color: #c586c0;&quot;&gt;case&lt;/span&gt; &lt;span style=&quot;color: #ce9178;&quot;&gt;&#39;WeakMap&#39;&lt;/span&gt;:&lt;/div&gt;&lt;div&gt;&amp;nbsp; &amp;nbsp; &lt;span style=&quot;color: #c586c0;&quot;&gt;case&lt;/span&gt; &lt;span style=&quot;color: #ce9178;&quot;&gt;&#39;WeakSet&#39;&lt;/span&gt;:&lt;/div&gt;&lt;div&gt;&amp;nbsp; &amp;nbsp; &amp;nbsp; &lt;span style=&quot;color: #c586c0;&quot;&gt;return&lt;/span&gt; &lt;span style=&quot;color: #4ec9b0;&quot;&gt;TargetType&lt;/span&gt;.&lt;span style=&quot;color: #4fc1ff;&quot;&gt;COLLECTION&lt;/span&gt;&lt;/div&gt;&lt;div&gt;&amp;nbsp; &amp;nbsp; &lt;span style=&quot;color: #c586c0;&quot;&gt;default&lt;/span&gt;:&lt;/div&gt;&lt;div&gt;&amp;nbsp; &amp;nbsp; &amp;nbsp; &lt;span style=&quot;color: #c586c0;&quot;&gt;return&lt;/span&gt; &lt;span style=&quot;color: #4ec9b0;&quot;&gt;TargetType&lt;/span&gt;.&lt;span style=&quot;color: #4fc1ff;&quot;&gt;INVALID&lt;/span&gt;&lt;/div&gt;&lt;div&gt;&amp;nbsp; }&lt;/div&gt;&lt;div&gt;}&lt;/div&gt;&lt;br&gt;&lt;div&gt;&lt;span style=&quot;color: #569cd6;&quot;&gt;function&lt;/span&gt; &lt;span style=&quot;color: #dcdcaa;&quot;&gt;getTargetType&lt;/span&gt;(&lt;span style=&quot;color: #9cdcfe;&quot;&gt;value&lt;/span&gt;&lt;span style=&quot;color: #d4d4d4;&quot;&gt;:&lt;/span&gt; &lt;span style=&quot;color: #4ec9b0;&quot;&gt;Target&lt;/span&gt;) {&lt;/div&gt;&lt;div&gt;&amp;nbsp; &lt;span style=&quot;color: #c586c0;&quot;&gt;return&lt;/span&gt; &lt;span style=&quot;color: #9cdcfe;&quot;&gt;value&lt;/span&gt;[&lt;span style=&quot;color: #4ec9b0;&quot;&gt;ReactiveFlags&lt;/span&gt;.&lt;span style=&quot;color: #4fc1ff;&quot;&gt;SKIP&lt;/span&gt;] &lt;span style=&quot;color: #d4d4d4;&quot;&gt;||&lt;/span&gt; &lt;span style=&quot;color: #d4d4d4;&quot;&gt;!&lt;/span&gt;&lt;span style=&quot;color: #4ec9b0;&quot;&gt;Object&lt;/span&gt;.&lt;span style=&quot;color: #dcdcaa;&quot;&gt;isExtensible&lt;/span&gt;(&lt;span style=&quot;color: #9cdcfe;&quot;&gt;value&lt;/span&gt;)&lt;/div&gt;&lt;div&gt;&amp;nbsp; &amp;nbsp; &lt;span style=&quot;color: #d4d4d4;&quot;&gt;?&lt;/span&gt; &lt;span style=&quot;color: #4ec9b0;&quot;&gt;TargetType&lt;/span&gt;.&lt;span style=&quot;color: #4fc1ff;&quot;&gt;INVALID&lt;/span&gt;&lt;/div&gt;&lt;div&gt;&amp;nbsp; &amp;nbsp; &lt;span style=&quot;color: #d4d4d4;&quot;&gt;:&lt;/span&gt; &lt;span style=&quot;color: #dcdcaa;&quot;&gt;targetTypeMap&lt;/span&gt;(&lt;span style=&quot;color: #dcdcaa;&quot;&gt;toRawType&lt;/span&gt;(&lt;span style=&quot;color: #9cdcfe;&quot;&gt;value&lt;/span&gt;))&lt;/div&gt;&lt;div&gt;}&lt;/div&gt;&lt;/div&gt;" style="text;html=1;strokeColor=none;fillColor=none;align=left;verticalAlign=middle;whiteSpace=wrap;rounded=0;" vertex="1" parent="1">
          <mxGeometry x="-1120" y="560" width="550" height="610" as="geometry" />
        </mxCell>
        <mxCell id="yXJMe5tw-wj3yFqUXWoE-34" value="判断target是否为Target.INVALID&lt;span style=&quot;background-color: rgb(255, 255, 255);&quot;&gt;&lt;font face=&quot;Consolas, Courier New, monospace&quot;&gt;？&lt;/font&gt;&lt;/span&gt;" style="rhombus;whiteSpace=wrap;html=1;fontSize=16;" vertex="1" parent="1">
          <mxGeometry x="690" y="920" width="320" height="80" as="geometry" />
        </mxCell>
        <mxCell id="yXJMe5tw-wj3yFqUXWoE-35" value="" style="endArrow=classic;html=1;rounded=0;exitX=0.5;exitY=1;exitDx=0;exitDy=0;entryX=0.5;entryY=0;entryDx=0;entryDy=0;" edge="1" parent="1" source="yXJMe5tw-wj3yFqUXWoE-27" target="yXJMe5tw-wj3yFqUXWoE-34">
          <mxGeometry width="50" height="50" relative="1" as="geometry">
            <mxPoint x="910" y="940" as="sourcePoint" />
            <mxPoint x="960" y="890" as="targetPoint" />
          </mxGeometry>
        </mxCell>
        <mxCell id="yXJMe5tw-wj3yFqUXWoE-36" value="" style="endArrow=classic;html=1;rounded=0;exitX=0;exitY=0.5;exitDx=0;exitDy=0;" edge="1" parent="1" source="yXJMe5tw-wj3yFqUXWoE-34" target="yXJMe5tw-wj3yFqUXWoE-37">
          <mxGeometry width="50" height="50" relative="1" as="geometry">
            <mxPoint x="540" y="1120" as="sourcePoint" />
            <mxPoint x="680" y="1060" as="targetPoint" />
            <Array as="points">
              <mxPoint x="480" y="960" />
            </Array>
          </mxGeometry>
        </mxCell>
        <mxCell id="yXJMe5tw-wj3yFqUXWoE-37" value="return target" style="rounded=1;whiteSpace=wrap;html=1;fontSize=16;fontFamily=Lucida Console;" vertex="1" parent="1">
          <mxGeometry x="380" y="1000" width="200" height="40" as="geometry" />
        </mxCell>
        <mxCell id="yXJMe5tw-wj3yFqUXWoE-38" value="" style="endArrow=classic;html=1;rounded=0;exitX=0.5;exitY=1;exitDx=0;exitDy=0;entryX=0;entryY=0.5;entryDx=0;entryDy=0;" edge="1" parent="1" source="yXJMe5tw-wj3yFqUXWoE-37" target="yXJMe5tw-wj3yFqUXWoE-13">
          <mxGeometry width="50" height="50" relative="1" as="geometry">
            <mxPoint x="550" y="1190" as="sourcePoint" />
            <mxPoint x="600" y="1140" as="targetPoint" />
            <Array as="points">
              <mxPoint x="480" y="1300" />
            </Array>
          </mxGeometry>
        </mxCell>
        <mxCell id="yXJMe5tw-wj3yFqUXWoE-39" value="创建响应式Proxy, handler&lt;br&gt;1. target 类型为 TargetType.COLLECTION 使用 collectionHandlers&lt;br&gt;2. 除1之外，可以使用baseHandlers&amp;nbsp;" style="rounded=1;whiteSpace=wrap;html=1;fontSize=16;" vertex="1" parent="1">
          <mxGeometry x="696.25" y="1040" width="307.5" height="90" as="geometry" />
        </mxCell>
        <mxCell id="yXJMe5tw-wj3yFqUXWoE-40" value="" style="endArrow=classic;html=1;rounded=0;exitX=0.5;exitY=1;exitDx=0;exitDy=0;entryX=0.5;entryY=0;entryDx=0;entryDy=0;" edge="1" parent="1" source="yXJMe5tw-wj3yFqUXWoE-34" target="yXJMe5tw-wj3yFqUXWoE-39">
          <mxGeometry width="50" height="50" relative="1" as="geometry">
            <mxPoint x="1080" y="1120" as="sourcePoint" />
            <mxPoint x="1130" y="1070" as="targetPoint" />
          </mxGeometry>
        </mxCell>
        <mxCell id="yXJMe5tw-wj3yFqUXWoE-41" value="设置target 与 新建proxy关联映射&lt;br&gt;&lt;div style=&quot;font-family: Consolas, &amp;quot;Courier New&amp;quot;, monospace; font-size: 20px; line-height: 27px;&quot;&gt;&lt;span style=&quot;background-color: rgb(255, 255, 255);&quot;&gt;proxyMap.set(target, proxy)&lt;/span&gt;&lt;/div&gt;" style="rounded=1;whiteSpace=wrap;html=1;fontSize=16;" vertex="1" parent="1">
          <mxGeometry x="696.25" y="1171" width="307.5" height="70" as="geometry" />
        </mxCell>
        <mxCell id="yXJMe5tw-wj3yFqUXWoE-42" value="" style="endArrow=classic;html=1;rounded=0;exitX=0.5;exitY=1;exitDx=0;exitDy=0;entryX=0.5;entryY=0;entryDx=0;entryDy=0;" edge="1" parent="1" source="yXJMe5tw-wj3yFqUXWoE-39" target="yXJMe5tw-wj3yFqUXWoE-41">
          <mxGeometry width="50" height="50" relative="1" as="geometry">
            <mxPoint x="1100" y="1140" as="sourcePoint" />
            <mxPoint x="1100" y="1180" as="targetPoint" />
          </mxGeometry>
        </mxCell>
        <mxCell id="yXJMe5tw-wj3yFqUXWoE-43" value="" style="endArrow=classic;html=1;rounded=0;exitX=0.5;exitY=1;exitDx=0;exitDy=0;entryX=0.5;entryY=0;entryDx=0;entryDy=0;" edge="1" parent="1" source="yXJMe5tw-wj3yFqUXWoE-41" target="yXJMe5tw-wj3yFqUXWoE-13">
          <mxGeometry width="50" height="50" relative="1" as="geometry">
            <mxPoint x="1070" y="1330" as="sourcePoint" />
            <mxPoint x="1120" y="1280" as="targetPoint" />
          </mxGeometry>
        </mxCell>
      </root>
    </mxGraphModel>
  </diagram>
</mxfile>
